<svg width="31" height="30" viewBox="0 0 31 30" fill="none" xmlns="http://www.w3.org/2000/svg">
<path fill-rule="evenodd" clip-rule="evenodd" d="M1.57429 30C1.46686 30 1.25201 30 1.14458 29.8889C0.714859 29.6667 0.5 29.3333 0.5 28.8889V10C0.5 4.44444 4.79717 0 10.1686 0H20.9116C26.283 0 30.5802 4.44444 30.5802 10V14.4444C30.5802 20 26.283 24.4444 20.9116 24.4444H15.8624C10.9206 24.4444 6.08633 26.3333 2.3263 29.7778C2.11144 29.8889 1.78915 30 1.57429 30ZM15.8624 22.9444C10.8352 22.9444 5.925 24.7581 2 28.0679V10C2 5.22483 5.67284 1.5 10.1686 1.5H20.9116C25.4074 1.5 29.0802 5.22483 29.0802 10V14.4444C29.0802 19.2196 25.4074 22.9444 20.9116 22.9444H15.8624ZM11.5294 13.2353C12.2604 13.2353 12.8529 12.6427 12.8529 11.9118C12.8529 11.1808 12.2604 10.5882 11.5294 10.5882C10.7984 10.5882 10.2059 11.1808 10.2059 11.9118C10.2059 12.6427 10.7984 13.2353 11.5294 13.2353ZM17.2647 11.9118C17.2647 12.6427 16.6721 13.2353 15.9412 13.2353C15.2102 13.2353 14.6176 12.6427 14.6176 11.9118C14.6176 11.1808 15.2102 10.5882 15.9412 10.5882C16.6721 10.5882 17.2647 11.1808 17.2647 11.9118ZM20.3529 13.2353C21.0839 13.2353 21.6765 12.6427 21.6765 11.9118C21.6765 11.1808 21.0839 10.5882 20.3529 10.5882C19.622 10.5882 19.0294 11.1808 19.0294 11.9118C19.0294 12.6427 19.622 13.2353 20.3529 13.2353Z" fill="black"/>
</svg>
